<?xml version="1.0" standalone="no"?><!DOCTYPE svg PUBLIC "-//W3C//DTD SVG 1.1//EN" "http://www.w3.org/Graphics/SVG/1.1/DTD/svg11.dtd"><svg t="1599881278601" class="icon" viewBox="0 0 1024 1024" version="1.1" xmlns="http://www.w3.org/2000/svg" p-id="2961" xmlns:xlink="http://www.w3.org/1999/xlink" width="200" height="200"><defs><style type="text/css"></style></defs><path d="M512.1 67.13c-245.38 0-445 199.62-445 445.01 0 245.37 199.62 444.99 445 444.99s445-199.62 445-444.99c0-245.39-199.63-445.01-445-445.01z m380.46 403.43c-2.19 0.31-4.36 0.82-6.47 1.66-94.5 35.28-201.94 56.45-314.88 61.97-0.87-7.33-1.46-14.68-1.46-22.06 0-97.56 76.87-192.17 211.39-257.21 3.16-1.58 5.82-3.71 8.13-6.1 56.29 59.22 94 136.2 103.29 221.74zM743.15 207.61c-149.48 76.73-234.01 187.8-234.01 306 0 7.4 0.36 14.78 1.04 22.13-26.11-0.04-51.9-1.12-77.47-2.81-0.12-6.94-0.43-13.83-0.43-20.8 0-133.04 20.69-261.65 62.08-371.04 1.35-3.71 1.84-7.4 1.76-10.98 5.34-0.22 10.59-0.81 15.99-0.81 86.83 0 166.74 29.4 231.04 78.31z m-310.89-69.8c-38.98 112.7-60.6 240.74-60.6 374.32 0 5.13 0.24 10.19 0.3 15.3-26.27-3.13-52.03-7.23-77.36-12.09 0.01-1.07 0.18-2.14 0.18-3.21 0-73.91-34-146.34-97.56-208.43-1.24-1.24-2.75-1.81-4.11-2.79 54.51-82.04 139.72-141.91 239.15-163.1z m-301.93 395.1c31.36 11.36 64.12 21.22 97.97 29.6-10.46 37.27-32.32 73.76-64.34 107.92-19.33-42.31-30.99-88.69-33.63-137.52z m7.77-60.69c-2.17-0.79-4.34-1.28-6.48-1.56 4.47-41.3 15.75-80.51 32.34-116.83 43.55 46.45 68.25 97.24 71.1 148.36-33.49-8.51-65.98-18.41-96.96-29.97z m55.42 251.8c1.74-1.14 3.65-1.92 5.18-3.46 44.26-44.26 73.93-93.82 87.5-145.38 28.79 5.48 58.13 9.93 87.94 13.28 6.23 105.9 25.53 206.93 57.92 297.94-99.07-21.18-184.05-80.73-238.54-162.38z m304.3 170.21c0.07-3.72-0.55-7.48-1.98-11.06-32.85-86.81-53.36-185.79-60.53-289.42 25.45 1.57 51.03 2.64 76.78 2.64 3.9 0 7.78-0.21 11.68-0.25 30.01 84.96 105.75 162.9 217.18 222.14-63.93 47.91-143 76.67-228.86 76.67-4.81 0-9.49-0.55-14.27-0.72z m290-117.2c-1.99-1.81-4.15-3.46-6.69-4.73-96.4-48.72-162.98-111.14-193.09-178.5 108.59-6.64 213.29-27.36 305.83-60.89-5.11 94.53-44.4 179.97-106.05 244.12z" fill="#666666" p-id="2962"></path></svg>