<?xml version="1.0" standalone="no"?><!DOCTYPE svg PUBLIC "-//W3C//DTD SVG 1.1//EN" "http://www.w3.org/Graphics/SVG/1.1/DTD/svg11.dtd"><svg t="1599881183105" class="icon" viewBox="0 0 1024 1024" version="1.1" xmlns="http://www.w3.org/2000/svg" p-id="1516" xmlns:xlink="http://www.w3.org/1999/xlink" width="200" height="200"><defs><style type="text/css"></style></defs><path d="M905.846154 897.969231H118.153846c-17.329231 0-31.507692-14.178462-31.507692-31.507693V157.538462c0-17.329231 14.178462-31.507692 31.507692-31.507693h787.692308c17.329231 0 31.507692 14.178462 31.507692 31.507693v708.923076c0 17.329231-14.178462 31.507692-31.507692 31.507693z m-756.184616-63.015385h724.676924V189.046154H149.661538v645.907692z" fill="#7F7F7F" p-id="1517"></path><path d="M393.846154 543.507692H279.630769c-17.329231 0-31.507692-14.178462-31.507692-31.507692s14.178462-31.507692 31.507692-31.507692H393.846154c17.329231 0 31.507692 14.178462 31.507692 31.507692s-14.178462 31.507692-31.507692 31.507692zM744.369231 543.507692H630.153846c-17.329231 0-31.507692-14.178462-31.507692-31.507692s14.178462-31.507692 31.507692-31.507692h114.215385c17.329231 0 31.507692 14.178462 31.507692 31.507692s-14.178462 31.507692-31.507692 31.507692z" fill="#7F7F7F" p-id="1518"></path><path d="M118.153846 354.461538h157.538462v315.076924H118.153846z" fill="#BFBFBF" p-id="1519"></path><path d="M275.692308 701.046154H118.153846c-17.329231 0-31.507692-14.178462-31.507692-31.507692V354.461538c0-17.329231 14.178462-31.507692 31.507692-31.507692h157.538462c17.329231 0 31.507692 14.178462 31.507692 31.507692v315.076924c0 17.329231-14.178462 31.507692-31.507692 31.507692z m-126.03077-63.015385h94.523077V385.969231H149.661538v252.061538z" fill="#7F7F7F" p-id="1520"></path><path d="M744.369231 354.461538h157.538461v315.076924h-157.538461z" fill="#BFBFBF" p-id="1521"></path><path d="M901.907692 701.046154h-157.538461c-17.329231 0-31.507692-14.178462-31.507693-31.507692V354.461538c0-17.329231 14.178462-31.507692 31.507693-31.507692h157.538461c17.329231 0 31.507692 14.178462 31.507693 31.507692v315.076924c0 17.329231-14.178462 31.507692-31.507693 31.507692z m-126.030769-63.015385h94.523077V385.969231h-94.523077v252.061538z" fill="#7F7F7F" p-id="1522"></path><path d="M512 512m-118.153846 0a118.153846 118.153846 0 1 0 236.307692 0 118.153846 118.153846 0 1 0-236.307692 0Z" fill="#BFBFBF" p-id="1523"></path><path d="M512 661.661538c-82.707692 0-149.661538-66.953846-149.661538-149.661538s66.953846-149.661538 149.661538-149.661538 149.661538 66.953846 149.661538 149.661538-66.953846 149.661538-149.661538 149.661538z m0-236.307692c-48.049231 0-86.646154 38.596923-86.646154 86.646154s38.596923 86.646154 86.646154 86.646154 86.646154-38.596923 86.646154-86.646154-38.596923-86.646154-86.646154-86.646154z" fill="#7F7F7F" p-id="1524"></path></svg>